# xmcd
#
# Track frame offsets:
# 150
# 15732
# 29115
# 41103
# 61084
# 72374
# 84180
# 93771
# 114817
# 125971
# 136415
# 147680
#
# Disc length: 2154 seconds
#
#
# Revision: 0
# Processed by: cddbd v1.5.1PL2 Copyright (c) Steve Scherf et al.
# Submitted via: FreeRIP 2.945 
#
DISCID=aa08680c
DTITLE=EmmyLou Harris - Angel Band
DYEAR=1987
DGENRE=Gospel
TTITLE0=Where Could I Go But To The Lord?
TTITLE1=Angel Band
TTITLE2=If I Be Lifted Up
TTITLE3=Precious Memories
TTITLE4=Bright Morning Stars
TTITLE5=When He Calls
TTITLE6=We Shall Rise
TTITLE7=Drifting Too Far
TTITLE8=Who Will Sing For Me?
TTITLE9=Someday My Ship Will Sail
TTITLE10=The Other Side of Life
TTITLE11=When They Ring Those Golden Bells
EXTD=
EXTT0=
EXTT1=
EXTT2=
EXTT3=
EXTT4=
EXTT5=
EXTT6=
EXTT7=
EXTT8=
EXTT9=
EXTT10=
EXTT11=
PLAYORDER=
